<svg class="svg-icon" style="width: 1em; height: 1em;vertical-align: middle;fill: currentColor;overflow: hidden;" viewBox="0 0 1024 1024" version="1.1" xmlns="http://www.w3.org/2000/svg"><path d="M842.4934 631.536106c0 69.42858 0.063608 138.857161-0.031804 208.285741-0.095413 71.177812-46.465944 121.07861-117.516539 126.644346-4.738827 0.38165-9.509457 0.572476-14.280088 0.572475-140.447371 0.031804-280.894742 0.159021-421.342113-0.031804-63.22676-0.063608-111.028481-35.01643-126.040066-91.43709-3.148616-11.831164-4.261764-23.916762-4.261763-36.193186 0.031804-139.397832 0-278.795664 0-418.193496 0-12.753486-0.445259-26.174861 5.152281-37.497159 9.509457-19.241544 4.61161-35.843339-3.530267-53.749107-19.750412-43.508153-35.429885-88.511104-37.497158-136.789887-3.244029-75.948442 34.094108-120.760568 109.438271-132.146473 13.580396-2.067273 27.383421-2.544336 41.122837-3.689288 5.088673-0.445259 9.541262-0.349846 8.968786 7.028729-0.413455 5.343107 0.636084 10.845234-7.251359 11.385906-4.707022 0.349846-9.477653 1.049539-14.057458 2.258099-35.684318 9.414045-53.84452 35.970556-50.314253 73.81756 4.770631 51.04575 29.132652 94.363077 54.130757 137.48958 3.339442 5.756561 8.046464 5.533932 13.516788 5.533932 148.398422-0.095413 296.796844-0.095413 445.195266 0.063608 5.692953 0 10.081933-0.477063 13.23055-6.010995 21.976706-38.64211 43.667174-77.316023 51.713638-121.905519 9.414045-52.095288-8.746156-80.273814-59.887319-90.769202-8.046464-1.653819-10.622605-4.99326-10.081933-12.721682 0.667888-9.064199 7.251359-6.042799 11.767556-5.979191 23.407895 0.254434 46.43414 3.530267 68.697083 10.940647 56.834115 18.923502 85.426096 65.0396 79.733143 127.153213-4.198155 45.82986-17.873963 88.924558-35.970556 130.874305-1.462993 3.40305-2.576141 6.965121-4.357176 10.177346-7.633009 13.99385-10.399975 27.415225-2.226295 42.967481 6.424449 12.181011 5.979191 26.62012 5.947387 40.486754-0.063608 70.446315 0.031804 140.924434 0.031804 211.434357z" fill="#123450" /><path d="M317.851228 922.480976c-3.085008-17.810355-3.371246-35.811535-3.657483-53.812715-0.286238-16.315557-6.424449-29.482498-19.559587-39.691648-16.729012-12.944312-32.980961-26.492903-49.39193-39.818865-15.743082-12.785291-23.503308-28.81461-23.248875-49.646365 0.636084-50.82312 0.60428-101.678045-0.063608-152.501165-0.254434-18.764481 2.544336-36.765661 6.869708-54.83045 2.671553-11.226884 8.968786-18.510048 19.718608-22.899028 31.263534-12.689878 62.304438-26.01584 93.567972-38.705717 21.340622-8.682548 63.353977 4.770631 75.789421 23.853154 20.450104 31.422555 40.8366 62.908718 61.2549 94.394881 14.089263 21.722272 30.150387 21.785881 43.826195-0.318042 19.432369-31.454359 38.864739-62.908718 57.438395-94.84014 5.279498-9.096003 12.499053-12.658074 21.626859-16.41097 31.23173-12.785291 60.777836-11.322297 90.960028 4.070938 18.22381 9.286828 38.260459 15.075193 57.438394 22.485573 9.922912 3.816505 16.283753 10.240954 19.43237 21.086188 5.788365 19.909433 10.113737 39.659844 10.050129 60.65062-0.190825 47.6427 0.286238 95.317203 1.558406 142.959903 0.60428 22.390161-7.060534 40.264124-23.21707 54.957667-14.502718 13.166941-28.751002 26.715533-44.112433 38.769326-18.00118 14.121067-27.478833 31.390751-26.842749 54.480604 0.286238 10.018325-0.98593 20.068454-1.558406 30.086778-2.321707 19.750412-2.957791 20.704538-23.248874 20.736342-107.879865 0.190825-215.759729 0.127217-323.60779 0-7.346771 0-15.011585 0.731497-21.02258-5.056869z" fill="#FBDBCB" /><path d="M291.549151 323.798615c33.458024 12.435444 66.947852 24.839084 100.374072 37.369941 27.701463 10.368171 55.212101 20.927167 85.076249 24.393826 46.879399 5.470323 90.101314-6.933317 132.87797-23.535112 29.482498-11.449514 59.187626-22.421965 88.892754-33.330808 3.085008-1.144951 6.488058-4.293568 11.544927 0.127217-6.519862 10.177346-16.951641 19.845824-19.018915 31.040905-4.325372 23.853154-20.990776 33.20359-39.914278 39.469019-45.320993 14.947977-67.488524 51.777246-89.433425 89.687859-16.697208 28.81461-34.475759 56.993136-51.872659 85.362487-9.00059 14.693543-9.191415 14.661739-18.955307-0.349846-20.768146-31.899618-43.190111-62.908718-61.731962-96.048701-21.595055-38.610305-50.854924-67.138678-91.88235-83.295213-13.230549-5.21589-20.79995-12.912507-23.694133-27.637855-3.085008-15.711277-16.124732-26.969966-22.262943-43.253719z" fill="#F5DA65" /><path d="M602.785104 458.902879c7.18775-14.788955 16.697208-22.930832 28.146722-28.910023 15.011585-7.823835 30.468429-14.82076 45.320993-22.930832 7.537597-4.134547 10.145542-2.576141 13.707612 5.184086 11.19508 24.266609 30.563841 37.560767 57.692829 37.242724 26.842749-0.318042 46.147902-12.817095 57.088548-37.8152 3.7847-8.61894 8.459919-16.856229 14.025655-27.796875 5.692953 12.371836 6.042799 23.694133 6.042799 34.602975 0.222629 141.433301 0.763301 282.898407-0.127217 424.331708-0.413455 64.339907-48.02435 107.498214-111.982607 105.399137-8.205485-0.286238-11.131472-2.067273-10.527192-10.686213 1.653819-23.757741 2.480728-47.579091 3.657484-71.368637 0.477063-9.636674 5.21589-16.824425 12.340031-23.058049 17.524117-15.329627 34.889213-30.881883 52.222505-46.43414 20.132062-18.064789 29.196261-40.23232 28.464764-67.679349-1.272168-48.183371-1.653819-96.430351-0.826909-144.613722 0.413455-23.853154-5.502128-45.957077-12.085598-68.22002-4.452589-15.011585-15.138802-23.884958-29.03724-29.291673-27.987701-10.877038-56.706898-20.132062-84.02671-32.535702-23.789546-10.845234-45.257384-2.671553-70.096469 4.579805zM183.033202 382.477374c6.138212 13.198745 10.113737 22.899028 15.011585 32.090443 12.244619 22.962636 31.295338 35.429885 57.724633 34.952822 25.697798-0.477063 44.557692-12.689878 55.371121-35.747927 3.943721-8.428114 7.028729-9.22322 14.629935-4.802435 14.59813 8.523527 29.895953 15.870298 44.684908 24.075783 8.39631 4.643414 15.20241 11.19508 20.004845 20.163866-0.890518 0.699693-1.876448 1.876448-2.258098 1.685623-33.171786-14.852564-61.413921 1.940057-90.355748 13.993851-13.135137 5.470323-25.729602 13.071528-39.373606 16.506382-36.988291 9.318632-49.932602 35.779731-52.826785 70.001056-1.20856 14.21648-1.431189 28.528372-1.431189 42.808461-0.031804 47.674504 0.667888 95.317203 0.190825 142.991707-0.254434 24.616455 8.587135 44.335062 27.160791 59.855514 17.047054 14.248284 34.41215 28.083113 51.713638 42.013356 7.855639 6.329037 11.926577 13.834829 12.181011 24.457434 0.60428 23.789546 2.19449 47.579091 3.911917 71.305028 0.508867 6.837904-1.081343 8.809765-8.237289 9.318632-63.067739 4.643414-113.66823-41.663509-113.731838-104.858465-0.095413-141.942169 0-283.852533-0.095413-425.794701 0.063608-10.558996 1.049539-20.831755 5.724757-35.01643zM211.52977 86.157592c-27.637854 40.295928-20.19567 80.051185-6.837904 119.520204 15.679473 46.370531 40.582166 88.161257 68.283629 128.170948 7.092338 10.272758 6.010995 16.061124-3.148617 23.312482-12.848899 10.20915-27.128987 16.347362-43.317327 17.873964-23.026245 2.162686-27.669659-0.826909-36.988291-22.23114-18.573656-42.649439-37.083703-85.330683-45.320993-131.542193-3.721092-20.927167-5.438519-41.886138-1.81284-63.131348 6.074603-35.843339 30.373016-62.654285 69.142343-71.972917zM788.394447 86.571047c39.691648 3.530267 71.018791 41.917943 72.863434 86.44383 1.717427 41.091033-9.286828 79.63773-23.121657 117.516539-8.682548 23.82135-19.686803 46.752182-28.910023 70.382706-3.562071 9.191415-9.827499 13.071528-18.732677 13.930242-24.680063 2.321707-45.60723-5.629344-63.703823-22.517377-6.996925-6.551666-2.671553-10.686213 0.858713-15.933907 23.757741-35.111843 45.893468-71.209616 62.018201-110.519614 13.135137-32.026835 23.471504-64.785166 17.746746-100.215051-2.289903-14.407305-7.601205-27.383421-19.018914-39.087368zM317.692207 312.539926h364.953257c0.477063 4.357176-3.625679 4.261764-5.915582 5.120477-37.020095 13.834829-73.849365 28.21033-111.251111 40.932012-42.331397 14.407305-85.4579 14.566326-127.789297 0.159021-36.861074-12.530857-73.086064-27.033575-109.565487-40.741187-2.735162-1.049539-5.247694-2.735162-10.43178-5.470323z" fill="#F5DA65" /><path d="M317.851228 922.480976c115.194832 0.031804 230.389664-0.254434 345.584496 0.477064 13.325962 0.095413 20.322887-3.212225 22.262944-16.188341 1.240364 39.055564 1.240364 39.055564-36.44762 39.055564h-309.804764c-22.676398 0-22.676398 0-21.595056-23.344287z" fill="#EFC0AC" /><path d="M792.847035 392.781936c-8.364506 25.125322-24.552847 39.214585-44.525887 39.437215-20.227475 0.190825-37.147312-12.40364-43.953412-32.281269-1.940057-5.661149-2.41712-11.354101-1.908252-17.142466 0.572476-6.933317 1.685623-15.329627 7.283163-18.510048 5.470323-3.116812 8.936982 5.406715 13.198745 8.682548 20.640929 15.870298 44.144237 21.40423 69.905643 19.81402zM207.745069 392.622915c31.263534 2.035469 56.865919-5.59754 77.824891-25.825015 8.523527-8.237289 9.414045 0.636084 11.19508 5.120477 8.141877 20.291083-1.844644 44.971146-21.944901 55.180297-20.577321 10.463584-46.243315 3.434854-58.328913-16.283753-2.957791-4.866043-4.99326-10.304563-8.746157-18.192006z" fill="#F4D965" /><path d="M339.541696 609.495792c20.481908-0.095413 37.624375 16.442774 38.101438 36.733857 0.477063 20.640929-17.269684 38.069634-38.483088 37.847004-20.450104-0.190825-37.338137-17.206075-37.21092-37.465354 0.095413-20.227475 17.110662-37.020095 37.59257-37.115507z" fill="#143551" /><path d="M661.845514 610.481722c22.23114 0 37.306333 14.21648 37.624374 35.525297 0.318042 21.563251-16.092928 38.165046-37.624374 38.006026-20.990776-0.159021-36.82927-16.188341-36.797466-37.274529 0-21.563251 14.916172-36.256794 36.797466-36.256794z" fill="#133450" /><path d="M432.950648 832.061621c3.530267-23.21707 17.651334-36.288598 44.843929-39.309998 32.82194-3.657484 64.021865 5.056869 95.06277 14.470913 6.933317 2.099078 3.943721 5.311302 3.148616 9.350437-1.526602 7.79203-6.042799 9.22322-12.689878 7.028729-20.640929-6.869708-41.663509-12.530857-63.512998-12.944312-18.764481-0.349846-38.610305-2.703357-49.582756 19.305153-3.085008 6.170016-11.226884 2.353511-17.269683 2.099078z" fill="#153551" /><path d="M522.256856 505.845886c-4.516197-3.625679-15.520452-2.639749-8.873373-14.725347 11.131472-20.291083 21.499643-41.059229 31.645184-61.890983 3.339442-6.837904 6.837904-5.915582 12.499053-3.307638 6.551666 3.0214 6.615275 6.297233 3.530267 12.149207-10.5908 20.036649-20.640929 40.391341-31.072709 60.523402-1.526602 3.0214-2.19449 7.442184-7.728422 7.251359z" fill="#163650" /><path d="M448.630121 423.600211c5.788365-0.98593 6.837904 3.148616 8.459918 6.233624 10.654409 20.481908 21.213405 41.059229 31.867814 61.541138 2.703357 5.184085 3.975526 8.873373-3.275833 12.117402-6.8061 3.0214-10.081933 2.576141-13.484983-4.420784-10.145542-20.768146-20.609125-41.409075-31.61338-61.763767-6.010995-11.067863 4.675218-10.050129 8.046464-13.707613z" fill="#153550" /><path d="M358.62422 641.904277c0.445259 15.965711-7.601205 24.775476-19.050719 24.139392-11.449514-0.60428-18.573656-6.551666-18.987111-18.669069-0.38165-11.19508 8.491723-20.895363 19.305153-20.163866 11.354101 0.763301 18.096593 7.092338 18.732677 14.693543z" fill="#FCFCFD" /><path d="M662.990465 665.662018c-11.385906 0.159021-21.245209-8.555331-20.4183-19.146131 0.858714-11.322297 7.18775-18.446439 18.987111-19.20974 11.004255-0.699693 21.054384 8.61894 20.227474 19.464173-0.826909 11.163276-6.869708 18.319222-18.796285 18.891698z" fill="#FBFBFC" /></svg>